<svg xmlns="http://www.w3.org/2000/svg" width="900" height="600" viewBox="0 0 900 600">
  <rect width="900" height="600" fill="#f6f8fa"/>
  <circle cx="300" cy="260" r="140" fill="#e9eef2"/>
  <path d="M420 260c0 90-55 165-120 165S180 350 180 260c0-50 35-95 85-110 25-8 60-8 85 0 50 15 70 60 70 110z" fill="#dbe3ea"/>
  <path d="M270 340c20-25 45-35 70-35 15 0 30 4 45 12" stroke="#008080" stroke-width="18" stroke-linecap="round" fill="none"/>
  <path d="M340 316c10 8 18 15 25 24" stroke="#36454F" stroke-width="10" stroke-linecap="round" fill="none" opacity="0.9"/>
  <text x="520" y="240" font-family="system-ui, -apple-system, Segoe UI, Roboto, Arial" font-size="42" fill="#36454F" font-weight="800">Neck Pain</text>
  <text x="520" y="290" font-family="system-ui, -apple-system, Segoe UI, Roboto, Arial" font-size="20" fill="#36454F" opacity="0.85">Stiffness • Tech neck • Whiplash</text>
  <rect x="520" y="325" width="300" height="14" rx="7" fill="#008080" opacity="0.55"/>
  <rect x="520" y="350" width="260" height="14" rx="7" fill="#008080" opacity="0.35"/>
  <rect x="520" y="375" width="220" height="14" rx="7" fill="#008080" opacity="0.25"/>
</svg>